# xmcd
#
# Track frame offsets:
#	150
#	13938
#	27782
#	44626
#	60928
#	79563
#	95035
#	112011
#	124185
#	140129
#	155646
#	175699
#	199762
#	213291
#	224271
#	241257
#	258622
#	278817
#	293671
#	316491
#
# Disc length: 4497 seconds
#
# Revision: 1
# Processed by: cddbd v1.5.2PL0 Copyright (c) Steve Scherf et al.
# Submitted via: EasyCDDAExtractor 2010.6.0.0
#
DISCID=2b118f14
DTITLE=Various Artist - Magic Of The Seventies cd 1
DYEAR=2013
DGENRE=Pop
TTITLE0=Queen - Killer Queen
TTITLE1=Pilot - Magic
TTITLE2=Roxy Music - Dance Away
TTITLE3=Slade - Far Far Away
TTITLE4=Supertramp - Give A Little Bit
TTITLE5=Albert Hammond - The Free Electric Band
TTITLE6=The Cars - My Best Friend's Girl
TTITLE7=Bob Dylan - If Not For You
TTITLE8=Diana Ross - Ain't No Mountain High Enough
TTITLE9=The Doobie Brothers - Long Train Running
TTITLE10=Cheap Trick - Surrender
TTITLE11=Ellen Foley - We Belong To The Night
TTITLE12=Elvis Costello and The Attractions - Oliver's Army
TTITLE13=Daryl Hall and John Oates - Rich Girl
TTITLE14=Sherbet - Howzat
TTITLE15=Little River Band - Home On Monday
TTITLE16=Kate Bush - Wuthering Heights
TTITLE17=McGuinn, Clark and Hillman - Don't You Write Her Off
TTITLE18=Santana - Europa (Earth's Cry Heaven's Smile)
TTITLE19=Gary Brooker - No More Fear Of Flying
EXTD=
EXTT0=
EXTT1=
EXTT2=
EXTT3=
EXTT4=
EXTT5=
EXTT6=
EXTT7=
EXTT8=
EXTT9=
EXTT10=
EXTT11=
EXTT12=
EXTT13=
EXTT14=
EXTT15=
EXTT16=
EXTT17=
EXTT18=
EXTT19=
PLAYORDER=
